<svg version="1.1" id="Layer_1" xmlns="http://www.w3.org/2000/svg" xmlns:xlink="http://www.w3.org/1999/xlink" x="0px" y="0px"
	 width="100%" viewBox="0 0 70 61" enable-background="new 0 0 70 61" xml:space="preserve">
<path fill="#113553" opacity="1.000000" stroke="none" 
	d="
M71.000000,37.000000 
	C71.000000,45.318600 71.000000,53.637203 71.000000,61.977901 
	C47.722664,61.977901 24.445303,61.977901 1.083971,61.977901 
	C1.083971,41.758869 1.083971,21.517332 1.083971,1.137890 
	C24.332787,1.137890 47.666267,1.137890 71.000000,1.137890 
	C71.000000,8.087205 71.000000,15.074821 70.677902,22.575211 
	C69.916100,23.397753 69.476387,23.707520 68.947418,24.472351 
	C68.849686,28.020243 68.668457,31.127939 68.932640,34.197300 
	C69.017525,35.183540 70.277588,36.068630 71.000000,37.000000 
M30.722008,51.839458 
	C31.391153,47.649231 32.060299,43.459007 32.756863,39.097095 
	C35.828568,39.097095 39.093727,39.097095 42.922256,39.097095 
	C42.922256,43.481339 42.922256,47.674294 42.922256,51.875870 
	C47.947449,51.875870 52.406239,51.875870 56.487793,51.875870 
	C56.487793,40.582928 56.487793,29.469196 56.487793,18.355465 
	C56.052437,18.362783 55.617081,18.370104 55.181725,18.377422 
	C55.181725,28.727905 55.181725,39.078388 55.181725,49.561642 
	C51.530876,49.561642 48.448448,49.561642 44.839302,49.561642 
	C44.839302,45.133915 44.839302,40.910759 44.839302,36.749809 
	C39.415897,36.749809 34.525520,36.749809 29.160778,36.749809 
	C29.447361,41.875893 29.713621,46.638432 30.722008,51.839458 
M19.681925,19.486141 
	C19.681925,17.535069 19.681925,15.583994 19.681925,13.643161 
	C23.188822,13.643161 26.062572,13.643161 29.374971,13.643161 
	C29.374971,18.080633 29.374971,22.174730 29.374971,26.438446 
	C34.744270,26.438446 39.655037,26.438446 44.439804,26.438446 
	C44.439804,21.152309 44.439804,16.131527 44.439804,11.110745 
	C43.990280,11.116370 43.540756,11.121996 43.091232,11.127622 
	C43.091232,15.284398 43.091232,19.441174 43.091232,23.678123 
	C39.010963,23.678123 35.636707,23.678123 31.835438,23.678123 
	C31.835438,19.235399 31.835438,15.164822 31.835438,11.317225 
	C26.672888,11.317225 21.952951,11.317225 17.743259,11.317225 
	C17.743259,22.806973 17.743259,33.884975 17.743259,44.962975 
	C18.389446,44.966118 19.035633,44.969261 19.681820,44.972404 
	C19.681820,36.811630 19.681820,28.650854 19.681925,19.486141 
z"/>
<path fill="#FDFDFE" opacity="1.000000" stroke="none" 
	d="
M71.000000,36.583336 
	C70.277588,36.068630 69.017525,35.183540 68.932640,34.197300 
	C68.668457,31.127939 68.849686,28.020243 69.277435,24.498302 
	C70.131142,24.046127 70.565575,24.023064 71.000000,24.000000 
	C71.000000,25.066669 71.000000,26.133339 70.795517,27.638523 
	C70.727348,28.384693 70.863670,28.692347 71.000000,29.000000 
	C71.000000,29.444445 71.000000,29.888889 70.804718,30.737965 
	C70.559418,31.271664 70.430092,31.460649 70.473991,31.518755 
	C70.614868,31.705210 70.819786,31.843269 71.000000,32.000000 
	C71.000000,33.388889 71.000000,34.777779 71.000000,36.583336 
z"/>
<path fill="#BDC7CF" opacity="1.000000" stroke="none" 
	d="
M71.000000,23.750000 
	C70.565575,24.023064 70.131142,24.046127 69.366699,24.043240 
	C69.476387,23.707520 69.916100,23.397753 70.677902,23.043993 
	C71.000000,23.000000 71.000000,23.500000 71.000000,23.750000 
z"/>
<path fill="#BDC7CF" opacity="1.000000" stroke="none" 
	d="
M71.000000,28.750000 
	C70.863670,28.692347 70.727348,28.384693 70.795517,28.038521 
	C71.000000,28.000000 71.000000,28.500000 71.000000,28.750000 
z"/>
<path fill="#BDC7CF" opacity="1.000000" stroke="none" 
	d="
M71.000000,31.750000 
	C70.819786,31.843269 70.614868,31.705210 70.473991,31.518755 
	C70.430092,31.460649 70.559418,31.271664 70.804718,31.071297 
	C71.000000,31.000000 71.000000,31.500000 71.000000,31.750000 
z"/>
<path fill="#E9ECEF" opacity="1.000000" stroke="none" 
	d="
M30.350945,51.620216 
	C29.713621,46.638432 29.447361,41.875893 29.160778,36.749809 
	C34.525520,36.749809 39.415897,36.749809 44.839302,36.749809 
	C44.839302,40.910759 44.839302,45.133915 44.839302,49.561642 
	C48.448448,49.561642 51.530876,49.561642 55.181725,49.561642 
	C55.181725,39.078388 55.181725,28.727905 55.181725,18.377422 
	C55.617081,18.370104 56.052437,18.362783 56.487793,18.355465 
	C56.487793,29.469196 56.487793,40.582928 56.487793,51.875870 
	C52.406239,51.875870 47.947449,51.875870 42.922256,51.875870 
	C42.922256,47.674294 42.922256,43.481339 42.922256,39.097095 
	C39.093727,39.097095 35.828568,39.097095 32.756863,39.097095 
	C32.060299,43.459007 31.391153,47.649231 30.350945,51.620216 
z"/>
<path fill="#D4DAE0" opacity="1.000000" stroke="none" 
	d="
M19.681873,19.988110 
	C19.681820,28.650854 19.681820,36.811630 19.681820,44.972404 
	C19.035633,44.969261 18.389446,44.966118 17.743259,44.962975 
	C17.743259,33.884975 17.743259,22.806973 17.743259,11.317225 
	C21.952951,11.317225 26.672888,11.317225 31.835438,11.317225 
	C31.835438,15.164822 31.835438,19.235399 31.835438,23.678123 
	C35.636707,23.678123 39.010963,23.678123 43.091232,23.678123 
	C43.091232,19.441174 43.091232,15.284398 43.091232,11.127622 
	C43.540756,11.121996 43.990280,11.116370 44.439804,11.110745 
	C44.439804,16.131527 44.439804,21.152309 44.439804,26.438446 
	C39.655037,26.438446 34.744270,26.438446 29.374971,26.438446 
	C29.374971,22.174730 29.374971,18.080633 29.374971,13.643161 
	C26.062572,13.643161 23.188822,13.643161 19.681925,13.643161 
	C19.681925,15.583994 19.681925,17.535069 19.681873,19.988110 
z"/>
</svg>