<svg version="1.1" id="Layer_1" xmlns="http://www.w3.org/2000/svg" xmlns:xlink="http://www.w3.org/1999/xlink" x="0px" y="0px"
	 width="100%" viewBox="0 0 133 138" enable-background="new 0 0 133 138" xml:space="preserve">
<path fill="#000000" opacity="1.000000" stroke="none" 
	d="
M91.000000,1.000000 
	C105.241821,1.000000 119.483643,1.000000 134.000000,1.000000 
	C134.000000,9.352222 134.000000,17.707445 133.631622,26.529480 
	C127.100502,23.865553 125.119339,25.014690 124.991440,31.811775 
	C124.960114,33.476612 124.979805,35.142448 124.979668,36.807827 
	C124.977310,65.785484 124.879021,94.763756 125.065422,123.740204 
	C125.097748,128.764755 123.425484,130.613708 118.449951,130.404999 
	C111.800110,130.126022 105.122414,130.142029 98.470802,130.398239 
	C93.643684,130.584152 92.031136,128.581345 92.118538,123.904205 
	C92.320755,113.083260 92.077408,102.254623 92.199722,91.431206 
	C92.243462,87.561523 90.657356,86.080742 86.854721,86.109497 
	C73.532524,86.210220 60.208885,86.194862 46.886326,86.123817 
	C43.316071,86.104774 41.761730,87.556961 41.814507,91.190552 
	C41.928181,99.015984 41.676163,106.848282 41.866692,114.670631 
	C42.064331,122.784805 42.607788,130.890564 43.000000,139.000000 
	C29.092077,139.000000 15.184153,139.000000 1.000000,139.000000 
	C1.000000,130.981232 1.000000,122.959290 1.382688,114.445251 
	C7.605415,115.405174 8.971272,114.389961 9.138859,108.417145 
	C9.190229,106.586304 9.161562,104.753090 9.161761,102.920959 
	C9.164903,74.106255 9.150482,45.291534 9.181602,16.476862 
	C9.188466,10.121659 9.645227,9.698211 16.037796,9.647940 
	C22.533161,9.596860 29.036852,9.832788 35.522541,9.577826 
	C40.322582,9.389130 41.988487,11.332981 41.897358,16.041634 
	C41.687920,26.863665 41.935581,37.693848 41.812176,48.518608 
	C41.768394,52.358860 43.277695,53.905369 47.116058,53.875671 
	C60.273335,53.773880 73.432701,53.759701 86.589523,53.889229 
	C90.623871,53.928947 92.256821,52.426327 92.201500,48.313072 
	C92.046982,36.822674 92.260345,25.327358 92.108894,13.836879 
	C92.052444,9.553791 91.387489,5.278724 91.000000,1.000000 
z"/>
<path fill="#0F314E" opacity="1.000000" stroke="none" 
	d="
M43.428459,139.000000 
	C42.607788,130.890564 42.064331,122.784805 41.866692,114.670631 
	C41.676163,106.848282 41.928181,99.015984 41.814507,91.190552 
	C41.761730,87.556961 43.316071,86.104774 46.886326,86.123817 
	C60.208885,86.194862 73.532524,86.210220 86.854721,86.109497 
	C90.657356,86.080742 92.243462,87.561523 92.199722,91.431206 
	C92.077408,102.254623 92.320755,113.083260 92.118538,123.904205 
	C92.031136,128.581345 93.643684,130.584152 98.470802,130.398239 
	C105.122414,130.142029 111.800110,130.126022 118.449951,130.404999 
	C123.425484,130.613708 125.097748,128.764755 125.065422,123.740204 
	C124.879021,94.763756 124.977310,65.785484 124.979668,36.807827 
	C124.979805,35.142448 124.960114,33.476612 124.991440,31.811775 
	C125.119339,25.014690 127.100502,23.865553 133.631622,26.998146 
	C134.000000,64.232239 134.000000,101.464478 134.000000,139.000000 
	C117.647018,139.000000 101.292168,139.000000 84.568069,138.539917 
	C84.243523,125.421432 84.202538,112.761841 84.381096,100.105339 
	C84.440636,95.884789 82.890373,94.030472 78.543869,94.138504 
	C71.219131,94.320587 63.886192,94.143875 56.557133,94.188850 
	C50.237396,94.227623 49.997662,94.575066 49.865341,101.131706 
	C49.610584,113.755150 49.292072,126.377312 49.000000,139.000000 
	C47.285641,139.000000 45.571285,139.000000 43.428459,139.000000 
z"/>
<path fill="#103350" opacity="1.000000" stroke="none" 
	d="
M90.583336,1.000000 
	C91.387489,5.278724 92.052444,9.553791 92.108894,13.836879 
	C92.260345,25.327358 92.046982,36.822674 92.201500,48.313072 
	C92.256821,52.426327 90.623871,53.928947 86.589523,53.889229 
	C73.432701,53.759701 60.273335,53.773880 47.116058,53.875671 
	C43.277695,53.905369 41.768394,52.358860 41.812176,48.518608 
	C41.935581,37.693848 41.687920,26.863665 41.897358,16.041634 
	C41.988487,11.332981 40.322582,9.389130 35.522541,9.577826 
	C29.036852,9.832788 22.533161,9.596860 16.037796,9.647940 
	C9.645227,9.698211 9.188466,10.121659 9.181602,16.476862 
	C9.150482,45.291534 9.164903,74.106255 9.161761,102.920959 
	C9.161562,104.753090 9.190229,106.586304 9.138859,108.417145 
	C8.971272,114.389961 7.605415,115.405174 1.382688,113.976578 
	C1.000000,76.435326 1.000000,38.870644 1.000000,1.000000 
	C17.019596,1.000000 33.041138,1.000000 49.476757,1.465976 
	C49.886723,14.754958 49.953850,27.578629 49.834316,40.400558 
	C49.799263,44.160240 51.131935,45.912064 55.047558,45.851234 
	C63.205627,45.724499 71.368500,45.728661 79.526535,45.858784 
	C83.211647,45.917557 84.544220,44.334835 84.499191,40.750816 
	C84.373665,30.760677 84.316277,20.765667 84.507362,10.777850 
	C84.569878,7.510244 85.478386,4.258822 86.000000,1.000000 
	C87.388893,1.000000 88.777779,1.000000 90.583336,1.000000 
z"/>
<path fill="#000000" opacity="1.000000" stroke="none" 
	d="
M85.531342,1.000000 
	C85.478386,4.258822 84.569878,7.510244 84.507362,10.777850 
	C84.316277,20.765667 84.373665,30.760677 84.499191,40.750816 
	C84.544220,44.334835 83.211647,45.917557 79.526535,45.858784 
	C71.368500,45.728661 63.205627,45.724499 55.047558,45.851234 
	C51.131935,45.912064 49.799263,44.160240 49.834316,40.400558 
	C49.953850,27.578629 49.886723,14.754958 49.945415,1.465976 
	C61.687561,1.000000 73.375122,1.000000 85.531342,1.000000 
z"/>
<path fill="#000101" opacity="1.000000" stroke="none" 
	d="
M49.468658,139.000000 
	C49.292072,126.377312 49.610584,113.755150 49.865341,101.131706 
	C49.997662,94.575066 50.237396,94.227623 56.557133,94.188850 
	C63.886192,94.143875 71.219131,94.320587 78.543869,94.138504 
	C82.890373,94.030472 84.440636,95.884789 84.381096,100.105339 
	C84.202538,112.761841 84.243523,125.421432 84.099411,138.539917 
	C72.645775,139.000000 61.291546,139.000000 49.468658,139.000000 
z"/>
</svg>